<svg xmlns="http://www.w3.org/2000/svg" viewBox="0 0 64 64" role="img" aria-label="蓝色大肥鱼">
  <title>蓝色大肥鱼</title>
  <metadata>heroes:deepseek</metadata>
  <defs><radialGradient id="bg"><stop offset="0" stop-color="#0a2a4a"/><stop offset="1" stop-color="#040a14"/></radialGradient><filter id="shadow"><feDropShadow dx="0" dy="1" stdDeviation="1" flood-opacity=".55"/></filter></defs>
  <rect x="2" y="2" width="60" height="60" rx="12" fill="url(#bg)" stroke="#3fb6ff" stroke-width="2"/>
  <circle cx="32" cy="31" r="25" fill="none" stroke="#3fb6ff" stroke-width="1" opacity=".46"/>
  <g filter="url(#shadow)">
    <path fill="#1c5fa8" stroke="#bfe6ff" stroke-width="2.5" d="M14 34c2-14 12-20 21-20s20 7 22 20c-6-3-12-4-22-4s-15 1-21 4z"/>
    <path fill="#1c5fa8" stroke="#bfe6ff" stroke-width="2.5" d="M14 34c6 8 10 12 10 18l6-4c2 5 4 7 8 7l-3-6c6 0 9-2 11-7l4 3c-1-5-3-8-7-11z"/>
    <circle cx="24" cy="26" r="2.2" fill="#040a14" stroke="#bfe6ff" stroke-width="1.4"/>
    <circle cx="40" cy="26" r="2.2" fill="#040a14" stroke="#bfe6ff" stroke-width="1.4"/>
    <path fill="none" stroke="#bfe6ff" stroke-width="2" stroke-linecap="round" d="M18 14c3-3 8-4 12-2"/>
    <circle cx="32" cy="19" r="1.6" fill="#7fd4ff"/>
  </g>
  <path d="M10 9h12M42 9h12" stroke="#3fb6ff" stroke-width="1.5" opacity=".7"/>
</svg>
